<?xml version="1.0" encoding="UTF-8" standalone="no"?>
<svg width="130px" height="140px" viewBox="0 0 130 140" version="1.1" xmlns="http://www.w3.org/2000/svg" xmlns:xlink="http://www.w3.org/1999/xlink">
    <!-- Generator: Sketch 3.6.1 (26313) - http://www.bohemiancoding.com/sketch -->
    <title>矢印</title>
    <desc>Created with Sketch.</desc>
    <defs></defs>
    <g id="Page-1" stroke="none" stroke-width="1" fill="none" fill-rule="evenodd">
        <g id="矢印" fill="#EAF4D3">
            <g id="Page-1">
                <g>
                    <g id="矢印">
                        <path d="M65.4294655,7.10542734e-15 L75.2343503,7.10542734e-15 L36.9424421,38.2919082 L36.9424421,28.4870234 L65.4294655,-3.55271368e-15 L65.4294655,7.10542734e-15 Z M61.5624753,-3.55271368e-15 L51.7575905,-3.55271368e-15 L36.9424421,14.8151484 L36.9424421,24.6200332 L61.5624753,2.11994985e-23 L61.5624753,-3.55271368e-15 Z M11.9724342,53.4570313 L21.777319,53.4570313 L9.3379468,65.8964035 L5.13368766,60.2957778 L11.9724342,53.4570313 L11.9724342,53.4570313 Z M8.10544404,53.4570313 L0,53.4570313 L3.47555202,58.0869233 L8.10544404,53.4570313 L8.10544404,53.4570313 Z M79.1013405,1.33226763e-14 L88.9062253,1.33226763e-14 L36.9424421,51.9637832 L36.9424421,42.1588984 L79.1013405,-3.55271368e-15 L79.1013405,1.33226763e-14 Z M25.6443092,53.4570313 L35.449194,53.4570313 L15.2003416,73.7058837 L10.9960824,68.1052581 L25.6443092,53.4570313 L25.6443092,53.4570313 Z M92.7732155,0 L92.9940632,0 L92.9940632,9.58403713 L21.0627364,81.5153639 L16.8584772,75.9147383 L92.7732155,8.8817842e-15 L92.7732155,0 Z M92.9940632,13.4510273 L92.9940632,23.2559121 L26.9251311,89.3248442 L22.720872,83.7242185 L92.9940632,13.4510273 L92.9940632,13.4510273 Z M92.9940632,27.1229023 L92.9940632,36.9277871 L32.7875259,97.1343244 L28.5832668,91.5336987 L92.9940632,27.1229023 L92.9940632,27.1229023 Z M92.9940632,40.7947773 L92.9940632,50.5996621 L38.6499207,104.943805 L34.4456616,99.3431789 L92.9940632,40.7947773 L92.9940632,40.7947773 Z M94.0036842,53.4570313 L103.808569,53.4570313 L44.5123155,112.753285 L40.3080563,107.152659 L94.0036842,53.4570313 L94.0036842,53.4570313 Z M107.675559,53.4570313 L117.480444,53.4570313 L50.3747102,120.562765 L46.1704511,114.962139 L107.675559,53.4570313 L107.675559,53.4570313 Z M121.347434,53.4570313 L129.936505,53.4570313 L126.274751,58.3345994 L56.237105,128.372245 L52.0328459,122.77162 L121.347434,53.4570313 L121.347434,53.4570313 Z M114.628257,73.8480839 L64.9657895,140 L57.8952407,130.5811 L114.628257,73.8480839 L114.628257,73.8480839 Z M47.8906003,-3.55271368e-15 L36.9424421,-3.55271368e-15 L36.9424421,10.9481582 L47.8906003,8.88178422e-15 L47.8906003,-3.55271368e-15 Z" id="Combined-Shape"></path>
                    </g>
                </g>
            </g>
        </g>
    </g>
</svg>