<?xml version="1.0" standalone="no"?>
<!DOCTYPE svg PUBLIC "-//W3C//DTD SVG 20010904//EN"
 "http://www.w3.org/TR/2001/REC-SVG-20010904/DTD/svg10.dtd">
<svg version="1.0" xmlns="http://www.w3.org/2000/svg"
 width="900.000000pt" height="642.000000pt" viewBox="0 0 900.000000 642.000000"
 preserveAspectRatio="xMidYMid meet">
<metadata>
Created by potrace 1.10, written by Peter Selinger 2001-2011
</metadata>
<g transform="translate(0.000000,642.000000) scale(0.100000,-0.100000)"
fill="#000000" stroke="none">
<path d="M3617 6414 c-8 -8 1 -24 14 -24 5 0 9 7 9 15 0 15 -12 20 -23 9z"/>
<path d="M3525 6379 c-67 -10 -172 -33 -215 -47 -19 -6 -62 -18 -95 -28 -33
-9 -75 -23 -93 -30 -18 -8 -39 -14 -47 -14 -8 0 -29 -6 -47 -14 -18 -8 -53
-22 -78 -31 -25 -10 -61 -24 -80 -33 -19 -8 -48 -20 -65 -27 -122 -53 -241
-110 -335 -162 -30 -17 -73 -41 -95 -53 -22 -12 -53 -30 -70 -41 -16 -10 -37
-22 -45 -26 -53 -25 -363 -247 -459 -329 -154 -131 -216 -188 -352 -323 -136
-137 -186 -191 -323 -352 -32 -38 -165 -215 -181 -241 -5 -9 -35 -54 -66 -100
-128 -188 -133 -205 -80 -283 17 -25 31 -48 31 -50 0 -2 23 -36 51 -77 27 -40
70 -102 94 -138 24 -36 65 -90 90 -120 26 -30 54 -64 64 -75 147 -176 205
-238 350 -379 46 -44 102 -99 125 -121 22 -22 55 -51 73 -65 17 -14 69 -57
115 -96 133 -113 415 -317 478 -347 8 -4 29 -16 45 -27 17 -11 39 -24 50 -30
11 -6 47 -25 80 -43 113 -63 226 -118 360 -177 36 -16 90 -38 125 -50 14 -5
50 -18 80 -30 77 -29 202 -70 320 -103 167 -48 181 -50 192 -39 8 8 7 13 -5
17 -33 10 -43 16 -114 62 -159 106 -192 130 -283 208 -130 113 -292 282 -383
403 -43 56 -77 103 -77 106 0 2 -15 26 -33 52 -18 27 -47 78 -65 114 -18 36
-37 72 -42 80 -26 45 -82 182 -100 245 -4 17 -13 44 -18 60 -31 90 -65 244
-82 370 -18 131 -23 390 -11 505 22 198 30 261 40 293 6 18 19 70 31 117 11
47 29 110 41 140 11 30 24 66 29 80 14 44 82 193 110 240 78 136 224 349 259
380 3 3 39 42 79 87 69 78 265 253 342 306 19 13 64 44 100 68 36 25 72 48 80
52 8 4 42 23 75 43 33 19 73 40 88 46 28 10 32 32 6 34 -8 1 -36 -2 -64 -7z"/>
<path d="M5586 6341 c-3 -4 45 -39 107 -76 245 -149 413 -298 653 -580 51 -61
174 -254 225 -356 28 -57 56 -113 62 -123 5 -11 13 -31 17 -45 5 -14 18 -51
30 -81 35 -89 53 -156 80 -290 7 -30 19 -89 28 -130 14 -61 17 -128 16 -360
-1 -190 -5 -302 -13 -335 -7 -27 -16 -75 -21 -105 -12 -81 -57 -245 -90 -330
-12 -30 -25 -67 -30 -81 -4 -14 -12 -34 -18 -45 -6 -10 -28 -54 -49 -97 -58
-119 -62 -126 -124 -221 -57 -86 -79 -116 -147 -200 -47 -57 -223 -235 -307
-311 -90 -80 -272 -215 -291 -215 -8 0 -14 -7 -14 -15 0 -8 7 -15 17 -15 16 0
168 50 273 90 30 12 69 26 87 31 18 5 35 14 38 19 4 6 13 10 21 10 34 0 469
216 515 256 8 8 19 14 23 14 5 0 28 14 53 30 24 17 46 30 48 30 18 0 336 237
495 369 124 104 403 376 491 480 30 35 59 69 64 75 114 124 415 551 415 588 0
21 -2 24 -109 188 -68 104 -229 326 -263 361 -7 8 -56 63 -107 123 -202 232
-506 515 -731 679 -166 121 -178 129 -315 210 -71 43 -137 82 -145 87 -30 19
-316 159 -380 186 -124 52 -287 108 -430 149 -30 9 -76 23 -101 31 -54 16 -66
17 -73 5z"/>
<path d="M4360 6024 c-64 -5 -205 -32 -270 -51 -86 -24 -169 -52 -188 -62 -9
-5 -51 -26 -92 -46 -41 -20 -84 -42 -95 -48 -70 -43 -189 -127 -240 -170 -60
-51 -208 -199 -246 -247 -154 -193 -260 -386 -313 -570 -57 -200 -67 -262 -73
-482 -7 -245 11 -392 73 -593 33 -106 116 -289 165 -363 16 -24 29 -45 29 -48
0 -14 132 -176 212 -259 80 -84 236 -218 293 -252 11 -6 57 -34 101 -61 171
-104 434 -188 663 -213 231 -24 515 1 726 65 127 38 294 115 393 181 30 19 56
35 59 35 9 0 118 87 195 156 200 180 349 394 457 659 24 58 50 141 66 215 9
41 21 95 28 120 16 68 21 473 7 545 -7 33 -16 83 -20 110 -5 28 -18 84 -29
125 -12 41 -25 89 -30 105 -15 51 -69 169 -79 173 -5 1 -19 -16 -31 -40 -100
-198 -281 -349 -491 -409 -88 -25 -327 -27 -409 -3 -64 19 -172 69 -215 99
-185 128 -304 306 -338 505 -22 125 -10 297 26 395 49 134 164 291 271 369 27
19 11 35 -47 47 -45 10 -480 20 -558 13z"/>
<path d="M3090 1775 c-19 -7 -45 -14 -57 -14 -35 -1 -163 -59 -239 -106 -60
-38 -176 -152 -232 -227 -67 -89 -126 -218 -142 -308 -5 -25 -13 -58 -19 -73
-14 -37 -14 -257 0 -294 6 -15 14 -48 19 -73 34 -192 191 -414 375 -534 158
-103 369 -159 532 -142 157 16 193 22 205 34 7 7 23 12 36 12 21 0 53 13 102
42 8 4 27 13 43 19 15 6 27 15 27 20 0 5 5 9 11 9 17 0 120 83 180 146 76 81
129 166 184 299 31 74 39 128 42 307 3 152 1 194 -12 224 -8 20 -15 45 -15 56
0 11 -6 32 -14 46 -7 15 -23 47 -35 72 -28 58 -37 72 -90 145 -51 69 -151 175
-166 175 -5 0 -20 11 -32 24 -33 35 -226 126 -267 126 -13 0 -40 7 -59 15 -48
20 -325 20 -377 0z m360 -193 c51 -12 120 -36 152 -54 98 -55 225 -180 279
-275 47 -82 58 -113 82 -242 20 -111 20 -118 4 -197 -9 -45 -17 -91 -17 -103
0 -31 -73 -179 -117 -236 -21 -28 -58 -69 -83 -91 -52 -47 -162 -124 -178
-124 -6 0 -23 -6 -39 -14 -72 -36 -129 -46 -252 -46 -140 0 -192 12 -311 69
-122 59 -263 205 -322 335 -10 21 -18 46 -18 55 0 9 -8 27 -17 41 -24 35 -24
360 1 405 9 17 16 35 16 42 0 43 115 208 194 281 54 49 167 122 190 122 7 0
21 7 32 15 10 8 35 15 54 15 19 1 44 5 55 10 25 12 234 6 295 -8z"/>
<path d="M6760 1775 c-19 -7 -44 -14 -55 -14 -33 -2 -188 -85 -256 -137 -149
-114 -267 -282 -322 -459 -28 -90 -40 -245 -27 -369 14 -136 33 -203 93 -321
22 -44 143 -212 156 -217 5 -2 36 -27 69 -57 64 -57 64 -57 169 -112 103 -54
235 -89 333 -89 l61 0 -3 103 -3 102 -45 6 c-93 14 -126 21 -165 36 -162 62
-315 193 -383 328 -50 99 -62 134 -62 175 l0 40 328 2 327 3 0 105 0 105 -330
5 -330 5 3 40 c4 46 36 123 89 218 23 40 106 128 162 171 57 44 179 106 207
106 8 0 25 5 37 12 12 6 54 14 92 17 l70 6 3 103 3 102 -93 -1 c-52 0 -108 -6
-128 -14z"/>
<path d="M13 1724 c-10 -5 -13 -178 -13 -819 0 -795 0 -815 19 -825 41 -21
367 -7 441 20 249 89 427 239 526 442 39 79 54 118 54 142 0 13 7 40 16 61 37
91 -7 440 -64 497 -7 7 -12 18 -12 24 0 19 -112 163 -172 220 -51 49 -150 124
-165 124 -3 0 -14 6 -22 13 -9 7 -36 21 -61 31 -25 10 -58 24 -75 31 -63 26
-156 39 -305 41 -85 2 -161 1 -167 -2z m407 -224 c66 -24 125 -54 175 -86 76
-49 205 -192 205 -226 0 -8 5 -19 12 -26 25 -25 41 -110 45 -241 4 -136 -4
-185 -43 -264 -8 -16 -14 -33 -14 -39 0 -11 -82 -122 -114 -154 -21 -20 -124
-98 -161 -121 -36 -23 -89 -45 -125 -53 -19 -5 -61 -14 -92 -21 -44 -10 -62
-10 -82 -1 l-26 12 0 613 c0 338 3 617 7 621 12 11 174 1 213 -14z"/>
<path d="M1312 898 l3 -833 103 -3 102 -3 0 709 c0 596 2 711 14 721 10 9 31
9 75 2 195 -32 336 -201 317 -383 -7 -69 -41 -150 -80 -190 -71 -74 -205 -148
-268 -148 -10 0 -18 -6 -18 -12 0 -14 25 -88 39 -116 9 -19 36 -80 45 -102 3
-8 15 -28 26 -45 11 -16 23 -37 27 -45 19 -40 101 -151 147 -198 28 -30 85
-80 126 -111 80 -61 243 -146 260 -136 15 9 13 192 -2 205 -7 5 -41 28 -75 50
-82 54 -188 162 -252 255 -71 106 -73 116 -18 148 64 38 169 156 205 229 96
201 79 390 -51 568 -41 56 -121 134 -160 156 -144 83 -262 113 -435 114 l-132
0 2 -832z"/>
<path d="M4415 1718 c-3 -7 -4 -377 -3 -823 l3 -810 23 -3 c42 -6 245 105 383
209 133 101 356 338 392 419 4 8 16 29 27 45 41 64 150 297 150 321 0 7 6 28
14 46 48 112 76 272 79 448 l2 155 -94 3 c-52 1 -98 -1 -103 -6 -5 -5 -13 -69
-18 -143 -13 -190 -51 -358 -111 -499 -6 -14 -18 -41 -26 -60 -8 -19 -19 -42
-24 -50 -5 -8 -13 -24 -18 -36 -12 -27 -73 -127 -82 -134 -3 -3 -18 -24 -33
-48 -63 -100 -313 -319 -337 -295 -5 5 -10 285 -11 638 l-3 630 -103 3 c-76 2
-104 -1 -107 -10z"/>
<path d="M5655 1718 c-3 -7 -4 -380 -3 -828 l3 -815 100 0 100 0 0 825 0 825
-98 3 c-72 2 -99 -1 -102 -10z"/>
<path d="M7181 1693 c-26 -100 -24 -216 9 -518 16 -136 89 -403 139 -503 4 -9
23 -48 42 -87 73 -153 175 -304 299 -437 34 -38 68 -68 75 -68 13 0 59 90 195
375 96 202 125 258 135 262 12 4 9 8 135 -252 173 -357 186 -380 207 -380 12
0 45 29 84 75 69 80 159 195 159 204 0 3 13 24 29 48 27 39 104 190 136 263
69 162 115 337 134 515 7 57 15 88 25 96 14 9 16 41 16 213 0 125 -4 200 -9
196 -6 -3 -15 4 -21 15 -10 19 -19 20 -106 18 l-96 -3 -3 -220 c-4 -280 -14
-357 -69 -550 -13 -47 -20 -67 -51 -140 -50 -118 -161 -304 -182 -305 -12 0
-64 103 -243 485 -80 170 -135 278 -143 279 -9 1 -31 -38 -75 -134 -16 -36
-46 -99 -65 -140 -19 -41 -49 -106 -67 -145 -18 -38 -49 -106 -70 -150 -21
-44 -48 -104 -61 -133 -34 -75 -53 -71 -110 26 -49 82 -139 264 -139 281 0 6
-6 25 -14 43 -76 177 -110 495 -83 778 l2 25 -102 3 -102 3 -10 -38z"/>
</g>
</svg>
