<?xml version="1.0" encoding="UTF-8" standalone="no"?>
<svg width="650px" height="287px" viewBox="0 0 650 287" version="1.1" xmlns="http://www.w3.org/2000/svg" xmlns:xlink="http://www.w3.org/1999/xlink">
    <!-- Generator: Sketch 3.6.1 (26313) - http://www.bohemiancoding.com/sketch -->
    <title>Group</title>
    <desc>Created with Sketch.</desc>
    <defs></defs>
    <g id="Page-1" stroke="none" stroke-width="1" fill="none" fill-rule="evenodd">
        <g id="Group">
            <g id="観光資源保有者" transform="translate(0.000000, 187.000000)">
                <rect id="Rectangle-1" fill="#FFE9EC" x="0" y="0" width="250" height="100"></rect>
                <g id="nature_icon" transform="translate(143.000000, 9.000000)" fill="#FFF4F6">
                    <path d="M48.1850962,24.7476423 L48.2031751,24.7476423 L48.2031751,29.3185366 L54.086248,29.3185366 L54.086248,24.7373984 C59.9232672,24.6414634 62.5850561,21.8273171 60.2983574,14.3995122 C58.4870393,8.51073171 57.9696014,0.066504065 50.98124,0.066504065 C43.9909756,0.066504065 43.4754407,8.51056911 41.6620292,14.3995122 C39.3332732,21.9609756 42.1296074,24.7476423 48.1850962,24.7476423 L48.1850962,24.7476423 Z" id="Shape"></path>
                    <path d="M71.1719752,39.4455285 L71.1940505,39.4455285 L71.1940505,45.1131707 L78.4891827,45.1131707 L78.4891827,39.4334959 C85.7264623,39.3117073 89.0299579,35.824065 86.1936599,26.6120325 C83.9469251,19.3108943 83.3052183,8.84113821 74.6379908,8.84113821 C65.9728566,8.84113821 65.3309595,19.3110569 63.0844151,26.6120325 C60.1980669,35.9904065 63.6640825,39.4455285 71.1719752,39.4455285 L71.1719752,39.4455285 Z" id="Shape"></path>
                    <path d="M62.5348157,43.5741463 C42.0512019,35.9356098 31.9939904,33.0733333 24.9194211,25.7520325 C17.676242,18.2590244 32.7361779,6.97495935 41.6761118,1.8900813 L27.0135317,1.8900813 C10.9387019,6.89284553 -10.6541967,24.4013008 6.01247997,39.1284553 C8.33114984,35.5173984 11.8415064,32.8678049 17.5660557,32.8678049 C28.9892728,32.8678049 31.5989183,43.4097561 33.5063401,51.1065041 C33.9194912,52.7809756 34.3126603,54.3629268 34.7600661,55.8144715 C35.5022536,58.2276423 35.9095052,60.3921951 36.0116987,62.3426016 C40.0514824,68.2998374 38.8740685,73.6882927 31.9939904,79.9334959 L96.427474,79.9334959 C101.642768,65.2115447 86.0733874,52.3491057 62.5348157,43.5741463 L62.5348157,43.5741463 Z" id="Shape"></path>
                    <path d="M17.5660557,36.3777236 C7.65309495,36.3777236 6.91909054,48.3525203 4.34940905,56.7074797 C1.04572316,67.4362602 5.01147837,71.3900813 13.6003005,71.3900813 L13.6263722,71.3900813 L13.6263722,77.8736585 L21.9727464,77.8736585 L21.9727464,71.3764228 C30.2527043,71.237561 34.0317708,67.2460163 30.7863181,56.7076423 C28.2151142,48.3525203 27.4807292,36.3777236 17.5660557,36.3777236 L17.5660557,36.3777236 Z" id="Shape"></path>
                </g>
            </g>
            <g id="ユーザー" transform="translate(400.000000, 187.000000)">
                <rect id="Rectangle-1" fill="#DBEFFC" x="0" y="0" width="250" height="100"></rect>
                <g id="user_icon" transform="translate(135.000000, 11.000000)" fill="#ECF6FD">
                    <path d="M50.6573624,31.9623762 C59.427814,31.9623762 66.539237,24.8459406 66.539237,16.0685149 C66.539237,7.29267327 59.427814,0.176237624 50.6573624,0.176237624 C41.8869107,0.176237624 34.7764771,7.29247525 34.7764771,16.0685149 C34.7762793,24.8459406 41.8867129,31.9623762 50.6573624,31.9623762 L50.6573624,31.9623762 Z" id="Shape"></path>
                    <path d="M85.6633807,39.1029703 C92.202138,39.1029703 97.5037476,33.7974257 97.5037476,27.2524752 C97.5037476,20.7091089 92.202138,15.4037624 85.6633807,15.4037624 C79.1244254,15.4037624 73.8212328,20.7091089 73.8212328,27.2524752 C73.8212328,33.7974257 79.1244254,39.1029703 85.6633807,39.1029703 L85.6633807,39.1029703 Z" id="Shape"></path>
                    <path d="M85.7977414,41.8265347 C81.2451089,41.8265347 77.7634046,43.2445545 75.2455754,45.1368317 C75.778665,46.3037624 76.1564185,47.4312871 76.3784402,48.4667327 L76.4872744,48.9760396 L76.4872744,74.7883168 L87.6542546,74.7883168 C95.1990355,74.7883168 101.314923,68.6681188 101.314923,61.1180198 L101.314923,52.1772277 C100.499062,48.3657426 95.5975665,41.8265347 85.7977414,41.8265347 L85.7977414,41.8265347 Z" id="Shape"></path>
                    <path d="M15.6515419,15.4035644 C9.11199305,15.4035644 3.81097712,20.7089109 3.81097712,27.2522772 C3.81097712,33.7972277 9.11199305,39.1027723 15.6515419,39.1027723 C22.1910908,39.1027723 27.4928983,33.7972277 27.4928983,27.2522772 C27.4928983,20.7091089 22.1910908,15.4035644 15.6515419,15.4035644 L15.6515419,15.4035644 Z" id="Shape"></path>
                    <path d="M-2.27373675e-13,52.1776238 L-2.27373675e-13,61.1184158 C-2.27373675e-13,68.6685149 6.1158871,74.7887129 13.660668,74.7887129 L24.8274503,74.7887129 L24.8274503,48.9762376 L24.9362845,48.4669307 C25.1583062,47.4314851 25.5366534,46.3037624 26.0693472,45.1370297 C23.5505286,43.2447525 20.0690222,41.8267327 15.5171812,41.8267327 C5.71715826,41.8265347 0.816454207,48.3657426 -2.27373675e-13,52.1776238 L-2.27373675e-13,52.1776238 Z" id="Shape"></path>
                    <path d="M50.6573624,35.6158416 C37.5141514,35.6158416 30.9427438,44.3841584 29.8468826,49.4992079 L29.8468826,72.3671287 C29.8468826,76.4843564 33.1835406,79.8235644 37.2980661,79.8235644 L64.0166586,79.8235644 C68.1311842,79.8235644 71.4678422,76.4845545 71.4678422,72.3671287 L71.4678422,49.4992079 C70.3727725,44.3841584 63.8007712,35.6158416 50.6573624,35.6158416 L50.6573624,35.6158416 Z" id="Shape"></path>
                </g>
            </g>
            <g id="Droview" transform="translate(125.000000, 0.000000)">
                <rect id="Rectangle-1" fill="#EAF4D3" x="0" y="0" width="400" height="100"></rect>
                <g id="drone_icon" transform="translate(268.000000, 10.000000)" fill="#E8ECDF">
                    <path d="M67.3016949,18.6969492 C67.8738983,18.459209 68.4411299,18.2074576 69.0031638,17.9419209 C69.5306215,17.6937853 70.0510734,17.4318644 70.559774,17.1455367 C65.7882486,9.88497175 73.9764972,4.28587571 80.440904,3.47389831 C86.9981921,2.65514124 95.9500565,4.76519774 99.1374011,11.2122034 C102.477966,17.9694915 95.3518644,22.8359322 89.4926554,23.8097175 C86.6551412,24.280226 83.7159322,24.1683616 80.9132203,23.5425989 C79.8614689,23.3082486 79.7667797,23.2442938 79.0962712,24.0027119 C78.3548023,24.8438418 77.6861017,25.7367232 77.0637288,26.6677966 C85.5120904,29.5102825 98.9166102,28.8897175 103.979435,20.2983051 C107.230508,14.7821469 104.095141,8.71932203 99.4284746,5.24587571 C94.6983051,1.73107345 88.6271186,0.119096045 82.7848588,0.119096045 C76.2738983,0.119096045 68.199548,2.26553672 64.9760452,8.51412429 C63.340339,11.6861017 63.6935593,15.3679096 65.5087006,18.3742373 C66.1019209,19.3728814 66.3071186,19.1073446 67.3016949,18.6969492 L67.3016949,18.6969492 Z" id="Shape"></path>
                    <path d="M21.4361582,27.3021469 C27.0212429,28.8553672 33.1166102,28.5331073 38.5932203,26.700565 C38.0743503,25.9111864 36.4901695,23.1270056 35.5215819,23.399322 C34.3509605,23.7303955 33.1462147,23.959548 31.9376271,24.0924294 C29.1141243,24.4042938 26.2144633,24.2128814 23.4856497,23.3977401 C20.6689266,22.5306215 17.8867797,20.9774011 16.359322,18.3642938 C14.6544633,15.4287006 15.3337853,12.0411299 17.3884746,9.47615819 C21.5737853,4.38915254 29.239774,2.67389831 35.5299435,3.67548023 C41.7909605,4.67186441 49.2135593,10.1362712 44.9213559,17.0748023 C45.7315254,17.5143503 48.7810169,19.4244068 49.5222599,19.0140113 C50.1326554,18.6761582 50.5703955,17.1351412 50.7909605,16.5455367 C52.1218079,13.039322 51.3028249,9.26915254 48.9016949,6.44926554 C44.9954802,1.86033898 38.3640678,0.208813559 32.5529944,0.222824859 C27.3884746,0.222824859 22.0946893,1.49152542 17.6574011,4.17559322 C13.2099435,6.86644068 9.07096045,11.6741243 10.1346893,17.2352542 C11.1724294,22.6653107 16.4888136,25.9267797 21.4361582,27.3021469 L21.4361582,27.3021469 Z" id="Shape"></path>
                    <path d="M84.200452,58.5966102 C85.8637288,61.92 90.080226,63.519774 93.5884746,62.240678 C99.1444068,60.2135593 96.8827119,53.8628249 92.3835028,52.2167232 C89.9340113,51.480678 87.6619209,51.0479096 85.3538983,49.6946893 C80.9322034,47.1055367 77.0433898,43.3062147 74.2212429,39.0379661 C72.9837288,37.1658757 71.5821469,34.8456497 71.6510734,32.5150282 C71.7184181,30.2189831 72.8732203,27.9658757 74.0781921,26.0644068 C76.6967232,21.9306215 80.7975141,17.9968362 85.6881356,16.8503955 C87.4655367,16.4815819 89.8718644,15.9850847 89.9459887,13.639096 C90.0822599,9.30892655 82.7749153,8.71254237 80.239322,10.7362712 C79.7100565,11.1568362 79.4775141,11.5292655 79.2343503,12.1100565 C78.7326554,13.3082486 78.3087006,14.2718644 77.3328814,15.2458757 C73.7473446,18.8176271 68.4311864,20.9430508 63.6287006,22.2463277 C58.500113,23.6357062 53.8890395,23.0531073 48.920904,21.2707345 C44.7577401,19.7760452 38.6470056,17.3247458 36.640452,13.0135593 C36.4370621,12.5774011 36.4061017,12.1016949 36.1853107,11.6725424 C35.3025989,10.0915254 33.2497175,9.54350282 31.5636158,9.54350282 C29.2485876,9.53672316 24.9855367,11.0122034 25.7062147,14.0926554 C26.1114124,15.8232768 27.7731073,16.4440678 29.3037288,16.7421469 C33.1118644,17.4870056 36.3267797,19.7692655 38.9141243,22.6015819 C41.939435,25.9127684 45.2076836,30.7932203 43.3959322,35.4024859 C41.5774011,40.0275706 37.8072316,44.0940113 33.9857627,47.1642938 C31.0897175,49.4915254 27.9367232,51.2099435 24.3168362,52.0512994 C21.0327684,52.8149153 17.3491525,56.0711864 19.1866667,59.7448588 C20.2917514,61.9545763 22.9584181,62.8235028 25.2838418,62.6372881 C27.0903955,62.4926554 30.6777401,61.3290395 31.2587571,59.2912994 C31.8915254,57.0659887 33.4305085,55.2074576 35.099435,53.659661 C38.8743503,50.160226 43.6666667,47.6691525 48.4571751,45.8766102 C53.3150282,44.0578531 57.9349153,43.2323164 63.0149153,44.5371751 C68.0933333,45.8420339 73.0648588,48.1141243 77.3760452,51.0980791 C80.3012429,53.1254237 82.6128814,55.4248588 84.200452,58.5966102 L84.200452,58.5966102 Z" id="Shape"></path>
                    <path id="Shape" d="M31.8045661,9.54625487 C32.1690753,9.54625487 30.6478835,9.53825487 31.8045661,9.54625487 L31.8045661,9.54625487 L31.8045661,9.54625487 Z"></path>
                    <path d="M113.177853,51.0687006 C108.03209,42.6047458 97.7979661,37.9211299 88.0910734,37.9211299 C84.739887,37.9211299 81.3629379,38.4675706 78.2255367,39.660339 C79.1254237,40.8325424 80.1184181,41.9324294 81.1699435,42.9719774 C82.0076836,43.799548 82.359322,43.4219209 83.4332203,43.1477966 C85.1430508,42.7012429 86.9136723,42.4978531 88.6788701,42.4978531 C93.3125424,42.4978531 97.9855367,43.9166102 101.80904,46.540339 C105.868701,49.3105085 109.138757,53.7096045 109.44565,58.7414689 C109.72678,63.3715254 107.310056,67.6259887 103.501921,70.1636158 C95.3929944,75.5676836 83.4555932,73.4974011 76.7412429,66.7778531 C73.3333333,63.3681356 71.1923164,58.5035028 72.2316384,53.6528814 C72.3453107,53.12 72.4953672,52.5943503 72.6781921,52.0822599 C72.9523164,51.3116384 72.6316384,51.4133333 71.9850847,51.0497175 C71.0922034,50.5498305 70.180339,50.0842938 69.2546893,49.6481356 C68.7511864,49.4119774 67.7308475,48.760452 67.3344633,48.9810169 C67.2273446,49.0413559 67.1825989,49.3412429 67.099887,49.439548 C62.3661017,59.5859887 69.2908475,70.3168362 78.1529944,75.2967232 C86.6619209,80.0580791 97.8700565,80.9819209 106.556384,76.1294915 C115.720678,71.0081356 118.652655,60.0772881 113.177853,51.0687006 L113.177853,51.0687006 Z" id="Shape"></path>
                    <path d="M43.5613559,51.1342373 C42.8700565,51.5186441 43.2458757,51.7480226 43.5046328,52.439096 C43.7853107,53.1871186 43.9821469,53.9629379 44.1080226,54.7523164 C44.8974011,59.7290395 42.4840678,64.5988701 38.8675706,67.9050847 C31.8723164,74.300339 19.8831638,76.0259887 12.0329944,70.1667797 C8.16949153,67.2845198 6.07683616,62.5753672 6.89039548,57.779661 C7.72474576,52.8614689 11.2241808,48.800226 15.3887006,46.2677966 C19.4431638,43.8027119 24.2974011,42.6219209 29.0293785,42.9511864 C30.2463277,43.040904 31.4564972,43.2235028 32.640678,43.52 C33.6628249,43.7753672 33.5179661,43.7303955 34.2558192,43.239096 C35.4470056,42.4445198 36.4673446,40.9446328 37.3466667,39.8361582 C34.3749153,38.800226 31.240904,38.3021469 28.0949153,38.3021469 C18.2637288,38.3021469 7.8899435,43.0822599 2.80293785,51.7498305 C-2.80971751,61.3116384 1.11525424,72.6183051 10.9841808,77.320904 C20.1342373,81.6820339 31.5649718,80.2411299 39.9116384,74.7385311 C48.2962712,69.2135593 53.9489266,58.2589831 48.5136723,48.7224859 C46.8142373,49.420565 45.1663277,50.2413559 43.5613559,51.1342373 L43.5613559,51.1342373 Z" id="Shape"></path>
                </g>
            </g>
            <g id="line" transform="translate(126.000000, 101.000000)" stroke="#C9CACA" stroke-width="4" stroke-linecap="square">
                <path d="M1,44 L1,84" id="Line"></path>
                <path d="M397,44 L397,84" id="Line"></path>
                <path d="M200,0.5 L200,40.5" id="Line"></path>
                <path d="M397,44 L1,44" id="Line"></path>
            </g>
        </g>
    </g>
</svg>